<svg width="41" height="40" viewBox="0 0 41 40" fill="none" xmlns="http://www.w3.org/2000/svg">
<path d="M20.4635 0.157715C9.23029 0.157715 0.119629 9.26669 0.119629 20.5016C0.119629 29.4902 5.94815 37.1158 14.0331 39.8062C15.0486 39.9944 15.3775 39.3638 15.3775 38.828V35.0407C9.71855 36.2715 8.5403 32.6401 8.5403 32.6401C7.61465 30.2887 6.28043 29.6631 6.28043 29.6631C4.43423 28.4001 6.42114 28.4272 6.42114 28.4272C8.46401 28.5696 9.53884 30.5243 9.53884 30.5243C11.3528 33.6336 14.2976 32.735 15.4589 32.2146C15.6403 30.9007 16.1676 30.0022 16.7507 29.4953C12.2327 28.9782 7.48242 27.2337 7.48242 19.4403C7.48242 17.2177 8.27752 15.4038 9.57784 13.9797C9.36761 13.466 8.67084 11.396 9.77619 8.59534C9.77619 8.59534 11.4851 8.04944 15.3724 10.6806C16.9949 10.2296 18.7343 10.0042 20.4635 9.99567C22.1927 10.0042 23.9338 10.2296 25.5596 10.6806C29.4436 8.04944 31.1491 8.59534 31.1491 8.59534C32.2562 11.3977 31.5594 13.4677 31.3492 13.9797C32.6546 15.4038 33.4429 17.2194 33.4429 19.4403C33.4429 27.2541 28.6841 28.9748 24.1542 29.4783C24.8832 30.109 25.5495 31.3466 25.5495 33.2453V38.828C25.5495 39.3688 25.875 40.0046 26.9074 39.8045C34.9856 37.1107 40.8074 29.4868 40.8074 20.5016C40.8074 9.26669 31.6984 0.157715 20.4635 0.157715Z" fill="#1D51FE"/>
</svg>
